<?xml version="1.0" encoding="utf-8"?>
<svg xmlns="http://www.w3.org/2000/svg" xmlns:xlink="http://www.w3.org/1999/xlink" style="margin: auto; background: none; display: block; shape-rendering: auto;" width="196px" height="196px" viewBox="0 0 100 100" preserveAspectRatio="xMidYMid">
<g transform="rotate(0 50 50)">
  <rect x="42.5" y="6.5" rx="7.5" ry="14.040000000000001" width="15" height="39" fill="#dfd913">
    <animate attributeName="opacity" values="1;0" keyTimes="0;1" dur="0.39370078740157477s" begin="-0.35433070866141736s" repeatCount="indefinite"></animate>
  </rect>
</g><g transform="rotate(36 50 50)">
  <rect x="42.5" y="6.5" rx="7.5" ry="14.040000000000001" width="15" height="39" fill="#dfd913">
    <animate attributeName="opacity" values="1;0" keyTimes="0;1" dur="0.39370078740157477s" begin="-0.31496062992125984s" repeatCount="indefinite"></animate>
  </rect>
</g><g transform="rotate(72 50 50)">
  <rect x="42.5" y="6.5" rx="7.5" ry="14.040000000000001" width="15" height="39" fill="#dfd913">
    <animate attributeName="opacity" values="1;0" keyTimes="0;1" dur="0.39370078740157477s" begin="-0.2755905511811024s" repeatCount="indefinite"></animate>
  </rect>
</g><g transform="rotate(108 50 50)">
  <rect x="42.5" y="6.5" rx="7.5" ry="14.040000000000001" width="15" height="39" fill="#dfd913">
    <animate attributeName="opacity" values="1;0" keyTimes="0;1" dur="0.39370078740157477s" begin="-0.2362204724409449s" repeatCount="indefinite"></animate>
  </rect>
</g><g transform="rotate(144 50 50)">
  <rect x="42.5" y="6.5" rx="7.5" ry="14.040000000000001" width="15" height="39" fill="#dfd913">
    <animate attributeName="opacity" values="1;0" keyTimes="0;1" dur="0.39370078740157477s" begin="-0.1968503937007874s" repeatCount="indefinite"></animate>
  </rect>
</g><g transform="rotate(180 50 50)">
  <rect x="42.5" y="6.5" rx="7.5" ry="14.040000000000001" width="15" height="39" fill="#dfd913">
    <animate attributeName="opacity" values="1;0" keyTimes="0;1" dur="0.39370078740157477s" begin="-0.15748031496062992s" repeatCount="indefinite"></animate>
  </rect>
</g><g transform="rotate(216 50 50)">
  <rect x="42.5" y="6.5" rx="7.5" ry="14.040000000000001" width="15" height="39" fill="#dfd913">
    <animate attributeName="opacity" values="1;0" keyTimes="0;1" dur="0.39370078740157477s" begin="-0.11811023622047245s" repeatCount="indefinite"></animate>
  </rect>
</g><g transform="rotate(252 50 50)">
  <rect x="42.5" y="6.5" rx="7.5" ry="14.040000000000001" width="15" height="39" fill="#dfd913">
    <animate attributeName="opacity" values="1;0" keyTimes="0;1" dur="0.39370078740157477s" begin="-0.07874015748031496s" repeatCount="indefinite"></animate>
  </rect>
</g><g transform="rotate(288 50 50)">
  <rect x="42.5" y="6.5" rx="7.5" ry="14.040000000000001" width="15" height="39" fill="#dfd913">
    <animate attributeName="opacity" values="1;0" keyTimes="0;1" dur="0.39370078740157477s" begin="-0.03937007874015748s" repeatCount="indefinite"></animate>
  </rect>
</g><g transform="rotate(324 50 50)">
  <rect x="42.5" y="6.5" rx="7.5" ry="14.040000000000001" width="15" height="39" fill="#dfd913">
    <animate attributeName="opacity" values="1;0" keyTimes="0;1" dur="0.39370078740157477s" begin="0s" repeatCount="indefinite"></animate>
  </rect>
</g>
<!-- [ldio] generated by https://loading.io/ --></svg>