<svg width="31" height="34" viewBox="0 0 31 34" fill="none" xmlns="http://www.w3.org/2000/svg">
<g clip-path="url(#clip0_17_167)">
<path d="M10.5179 1.59375C10.5179 0.710547 9.77746 0 8.85714 0C7.93683 0 7.19643 0.710547 7.19643 1.59375V4.25H4.42857C1.98594 4.25 0 6.15586 0 8.5V9.5625V12.75V29.75C0 32.0941 1.98594 34 4.42857 34H26.5714C29.0141 34 31 32.0941 31 29.75V12.75V9.5625V8.5C31 6.15586 29.0141 4.25 26.5714 4.25H23.8036V1.59375C23.8036 0.710547 23.0632 0 22.1429 0C21.2225 0 20.4821 0.710547 20.4821 1.59375V4.25H10.5179V1.59375ZM3.32143 12.75H8.85714V16.4688H3.32143V12.75ZM3.32143 19.6562H8.85714V23.9062H3.32143V19.6562ZM12.1786 19.6562H18.8214V23.9062H12.1786V19.6562ZM22.1429 19.6562H27.6786V23.9062H22.1429V19.6562ZM27.6786 16.4688H22.1429V12.75H27.6786V16.4688ZM27.6786 27.0938V29.75C27.6786 30.3344 27.1804 30.8125 26.5714 30.8125H22.1429V27.0938H27.6786ZM18.8214 27.0938V30.8125H12.1786V27.0938H18.8214ZM8.85714 27.0938V30.8125H4.42857C3.81964 30.8125 3.32143 30.3344 3.32143 29.75V27.0938H8.85714ZM18.8214 16.4688H12.1786V12.75H18.8214V16.4688Z" fill="black"/>
</g>
<defs>
<clipPath id="clip0_17_167">
<rect width="31" height="34" fill="white"/>
</clipPath>
</defs>
</svg>
